<svg width="849" height="587" viewBox="0 0 849 587" fill="none" xmlns="http://www.w3.org/2000/svg">
<g id="yeni" clip-path="url(#clip0)">
<g id="telefon">
<path id="Vector" d="M349.864 187.865L347.613 187.873L347.409 125.779C347.394 121.06 346.455 116.389 344.647 112.035C342.839 107.681 340.197 103.728 336.872 100.401C333.547 97.075 329.604 94.4408 325.268 92.6489C320.932 90.857 316.288 89.9427 311.601 89.958L180.955 90.3863C171.489 90.4173 162.423 94.2334 155.752 100.995C149.081 107.757 145.351 116.91 145.382 126.441L146.499 467.092C146.514 471.812 147.453 476.482 149.261 480.836C151.069 485.191 153.71 489.144 157.036 492.47C160.361 495.796 164.304 498.431 168.64 500.222C172.976 502.014 177.62 502.929 182.307 502.913L312.953 502.485C322.419 502.454 331.484 498.638 338.155 491.876C344.827 485.115 348.557 475.961 348.526 466.43L347.757 232.072L350.008 232.065L349.864 187.865Z" fill="#3F3D56"/>
<path id="Vector_2" d="M313.227 100.983L296.174 101.039C296.964 102.972 297.271 105.072 297.066 107.153C296.86 109.234 296.15 111.232 294.998 112.971C293.845 114.71 292.286 116.137 290.456 117.126C288.627 118.116 286.584 118.637 284.507 118.644L209.662 118.889C207.585 118.896 205.539 118.388 203.703 117.411C201.867 116.434 200.298 115.017 199.134 113.285C197.97 111.553 197.247 109.56 197.028 107.481C196.81 105.401 197.102 103.3 197.88 101.361L181.952 101.413C178.452 101.425 174.988 102.13 171.759 103.49C168.53 104.849 165.598 106.836 163.131 109.336C160.664 111.836 158.711 114.801 157.382 118.062C156.053 121.322 155.375 124.814 155.387 128.339L156.502 468.49C156.513 472.014 157.214 475.502 158.564 478.754C159.914 482.006 161.887 484.958 164.371 487.442C166.854 489.926 169.798 491.893 173.037 493.231C176.275 494.569 179.743 495.252 183.243 495.241L314.518 494.81C318.019 494.799 321.482 494.093 324.711 492.734C327.941 491.375 330.872 489.388 333.339 486.888C335.806 484.388 337.76 481.423 339.088 478.162C340.417 474.901 341.095 471.409 341.084 467.885L339.968 127.734C339.957 124.209 339.256 120.722 337.906 117.47C336.556 114.218 334.583 111.266 332.1 108.782C329.617 106.298 326.672 104.331 323.434 102.993C320.196 101.654 316.728 100.972 313.227 100.983Z" fill="white"/>
<path id="Vector_3" d="M290.329 473.467L2.30137 474.411C2.10088 474.411 1.90833 474.332 1.76609 474.19C1.62384 474.047 1.54356 473.854 1.5429 473.652C1.54224 473.45 1.62125 473.256 1.76256 473.113C1.90386 472.97 2.09588 472.889 2.29638 472.888L290.324 471.944C290.524 471.943 290.717 472.023 290.859 472.165C291.001 472.308 291.081 472.501 291.082 472.703C291.083 472.905 291.004 473.099 290.862 473.242C290.721 473.385 290.529 473.466 290.329 473.467Z" fill="#CBCBCB"/>
<path id="Ellipse 44" d="M248.664 393.641C283.921 393.525 312.409 364.651 312.292 329.149C312.176 293.646 283.5 264.96 248.242 265.075C212.985 265.191 184.497 294.065 184.613 329.567C184.73 365.07 213.406 393.756 248.664 393.641Z" fill="#6C63FF"/>
<path id="Path 395" d="M242.051 347.865C240.615 347.872 239.215 347.409 238.063 346.545L237.992 346.491L222.951 334.984C222.254 334.45 221.669 333.783 221.228 333.021C220.788 332.259 220.5 331.417 220.383 330.544C220.265 329.67 220.32 328.781 220.543 327.929C220.767 327.077 221.155 326.277 221.685 325.575C222.216 324.874 222.878 324.285 223.635 323.841C224.391 323.397 225.227 323.108 226.095 322.99C226.962 322.871 227.845 322.926 228.691 323.151C229.538 323.376 230.332 323.767 231.029 324.301L240.771 331.773L263.636 301.531C264.166 300.83 264.828 300.241 265.585 299.798C266.341 299.354 267.177 299.065 268.044 298.947C268.911 298.829 269.793 298.883 270.639 299.108C271.486 299.333 272.279 299.724 272.976 300.258L272.978 300.259L272.836 300.459L272.982 300.259C274.386 301.339 275.308 302.936 275.545 304.7C275.782 306.463 275.315 308.249 274.245 309.666L247.351 345.221C246.729 346.041 245.928 346.705 245.009 347.162C244.091 347.619 243.081 347.857 242.057 347.857L242.051 347.865Z" fill="white"/>
</g>
<g id="parca1">
<path id="Ellipse 44_2" d="M545.02 38.0461C555.299 38.0124 563.608 30.4427 563.577 21.1387C563.547 11.8347 555.189 4.31968 544.91 4.35338C534.63 4.38708 526.322 11.9568 526.352 21.2608C526.383 30.5647 534.741 38.0798 545.02 38.0461Z" fill="#F1F1F1"/>
</g>
<g id="parca2">
<path id="Ellipse 44_3" d="M445.183 292C451.45 291.98 456.515 287.365 456.497 281.692C456.478 276.02 451.383 271.438 445.115 271.459C438.848 271.479 433.783 276.094 433.801 281.767C433.82 287.439 438.916 292.021 445.183 292Z" fill="#F1F1F1"/>
</g>
<g id="ablam&#196;&#177;z">
<path id="Vector_4" d="M649.475 440.008C650.229 438.751 651.118 437.585 652.125 436.531C652.54 436.088 652.978 435.67 653.43 435.263C656.177 432.746 659.531 431.023 663.146 430.27C666.761 429.518 670.507 429.764 673.999 430.983C677.49 432.202 680.601 434.349 683.012 437.205C685.423 440.061 687.047 443.522 687.717 447.232C690.723 435.711 682.762 424.399 674.767 415.716C666.767 407.036 657.626 397.515 657.633 385.585C657.633 378.947 660.789 373.014 665.569 368.608C665.717 368.475 665.864 368.341 666.015 368.213C671.793 363.114 679.24 360.433 686.869 360.704C701.041 361.434 713.446 371.131 722.076 382.654C735.967 401.195 742.113 427.265 732.5 448.454C724.045 467.09 705.918 478.199 687.409 487.143C684.825 488.393 682.246 489.604 679.671 490.779C679.654 490.783 679.636 490.796 679.619 490.801C679.495 490.857 679.371 490.913 679.255 490.971C678.723 491.213 678.192 491.455 677.665 491.693L677.91 491.856L678.674 492.358C678.409 492.195 678.147 492.037 677.882 491.874C677.803 491.825 677.72 491.779 677.642 491.729C668.519 486.173 659.268 480.294 652.95 471.594C646.397 462.56 643.732 449.599 649.475 440.008Z" fill="#F1F1F1"/>
<path id="Vector_5" d="M710.15 418.78C712.181 423.463 713.534 428.424 714.166 433.506C714.664 438.038 714.497 442.62 713.671 447.102C711.893 456.311 707.978 464.948 702.256 472.288C697.939 477.859 692.951 482.851 687.409 487.143C684.825 488.393 682.246 489.604 679.671 490.779C679.654 490.783 679.636 490.796 679.619 490.801C679.495 490.857 679.371 490.913 679.255 490.971C678.723 491.213 678.192 491.455 677.665 491.693L677.91 491.856L678.674 492.358C678.409 492.195 678.147 492.037 677.882 491.874C677.804 491.825 677.72 491.779 677.642 491.729C679.622 484.556 679.892 477.002 678.429 469.7C676.965 462.398 673.812 455.56 669.232 449.76C664.629 444.034 658.767 439.501 652.125 436.531C652.54 436.088 652.978 435.67 653.43 435.263C655.988 436.454 658.439 437.875 660.753 439.507C669.029 445.316 675.257 453.694 678.514 463.403C681.423 472.211 681.814 481.684 679.641 490.711C680.097 490.404 680.554 490.089 680.999 489.775C689.462 483.899 697.256 476.849 703.116 468.216C708.17 460.919 711.392 452.464 712.498 443.593C713.595 433.904 711.194 424.387 706.936 415.759C702.236 406.529 696.324 397.999 689.364 390.406C682.373 382.603 674.474 375.704 665.844 369.863C665.649 369.73 665.512 369.525 665.461 369.292C665.41 369.058 665.449 368.813 665.569 368.608C665.661 368.422 665.821 368.279 666.015 368.213C666.113 368.187 666.216 368.184 666.316 368.204C666.416 368.224 666.51 368.267 666.591 368.33C667.656 369.052 668.712 369.78 669.756 370.53C678.448 376.78 686.347 384.11 693.272 392.351C699.964 400.295 706.059 409.125 710.15 418.78Z" fill="white"/>
<path id="Ellipse 44_4" d="M688.509 235.288C692.966 235.273 696.567 231.567 696.552 227.009C696.537 222.452 692.912 218.769 688.455 218.784C683.998 218.799 680.397 222.505 680.412 227.062C680.427 231.62 684.052 235.302 688.509 235.288Z" fill="#F1F1F1"/>
<path id="Vector_6" d="M457.733 493.993L738.932 493.072C739.128 493.071 739.316 492.991 739.454 492.849C739.592 492.707 739.669 492.515 739.668 492.314C739.667 492.114 739.589 491.923 739.45 491.782C739.311 491.64 739.123 491.562 738.927 491.562L457.728 492.484C457.532 492.485 457.345 492.565 457.207 492.707C457.069 492.849 456.992 493.041 456.993 493.241C456.993 493.441 457.072 493.633 457.211 493.774C457.349 493.915 457.537 493.994 457.733 493.993Z" fill="#CBCBCB"/>
<path id="Vector_7" d="M706.603 97.4382C706.964 94.7564 706.349 92.0324 704.877 89.7824C703.405 87.5324 701.176 85.9127 698.614 85.2303C696.052 84.5478 693.335 84.85 690.976 86.0796C688.618 87.3092 686.783 89.3808 685.818 91.9017L663.087 118.726L669.845 137.826L692.691 106.495C694.19 106.98 695.775 107.124 697.335 106.915C698.894 106.707 700.389 106.151 701.715 105.288C703.042 104.424 704.167 103.274 705.011 101.918C705.856 100.562 706.399 99.0324 706.603 97.4382Z" fill="#FFB7B7"/>
<path id="Vector_8" d="M612.358 201.831L687.832 118.922L677.561 102.346L582.826 184.817L612.358 201.831Z" fill="#3F3D56"/>
<path id="Vector_9" d="M595.288 151.662C609.962 151.614 621.818 139.411 621.768 124.406C621.719 109.401 609.784 97.2763 595.109 97.3244C580.435 97.3725 568.579 109.575 568.628 124.581C568.678 139.586 580.613 151.711 595.288 151.662Z" fill="#2F2E41"/>
<path id="Vector_10" d="M597.284 109.138C602.982 103.191 609.886 98.5935 617.509 95.6692C622.403 93.797 627.732 92.6327 632.858 93.67C637.984 94.7073 642.84 98.315 644.286 103.45C645.468 107.648 644.277 112.177 642.476 116.139C640.676 120.101 638.266 123.777 636.813 127.885C635.331 132.077 634.895 136.582 635.547 140.989C636.199 145.397 637.917 149.569 640.545 153.126C643.173 156.683 646.629 159.513 650.597 161.359C654.566 163.204 658.923 164.007 663.272 163.694C658.241 164.4 653.609 166.834 648.694 168.138C643.779 169.441 637.972 169.373 634.304 165.781C630.424 161.981 630.326 155.781 630.495 150.29C630.746 142.127 630.997 133.964 631.249 125.801C631.377 121.638 631.484 117.342 630.003 113.462C628.522 109.581 625.022 106.191 620.949 106.24C617.862 106.276 615.137 108.198 612.667 110.092C610.198 111.986 607.584 114.006 604.51 114.297C601.436 114.587 597.918 112.272 598.138 109.123L597.284 109.138Z" fill="#2F2E41"/>
<path id="Vector_11" d="M494.882 307.251C492.333 307.984 489.61 307.736 487.229 306.553C484.847 305.37 482.973 303.335 481.96 300.834C480.948 298.332 480.868 295.538 481.735 292.981C482.603 290.423 484.358 288.28 486.668 286.958L509.534 260.254L528.963 264.479L501.746 291.918C502.422 293.369 502.779 294.955 502.791 296.563C502.803 298.171 502.47 299.762 501.815 301.224C501.161 302.686 500.201 303.983 499.003 305.024C497.805 306.066 496.398 306.826 494.882 307.251L494.882 307.251Z" fill="#FFB7B7"/>
<path id="Vector_12" d="M570.088 211.672L513.118 285.291L495.652 277.162L562.546 169.892L570.088 211.672Z" fill="#3F3D56"/>
<path id="Vector_13" d="M525.166 433.556L511.53 433.381L513.326 480.896L525.319 480.857L525.166 433.556Z" fill="#FFB7B7"/>
<path id="Vector_14" d="M528.365 476.843L504.746 476.919L504.745 476.919C500.753 476.933 496.93 478.567 494.117 481.462C491.304 484.358 489.731 488.278 489.744 492.359L489.746 492.86L528.416 492.734L528.365 476.843Z" fill="#2F2E41"/>
<path id="Vector_15" d="M615.401 420.656L600.539 430.483L630.453 467.037L640.523 460.378L615.401 420.656Z" fill="#FFB7B7"/>
<path id="Vector_16" d="M640.965 455.317L621.133 468.43L621.132 468.431C617.78 470.647 615.427 474.135 614.59 478.126C613.753 482.116 614.5 486.284 616.668 489.712L616.934 490.132L649.405 468.663L640.965 455.317Z" fill="#2F2E41"/>
<path id="Vector_17" d="M620.232 275.533C620.232 275.533 586.769 163.247 576.129 161.763C565.488 160.279 548.452 190.693 548.452 190.693C526.329 219.752 503.727 313.721 503.727 313.721C503.727 313.721 541.927 316.04 569.895 331.137C597.863 346.233 630.758 330.168 630.758 330.168L620.232 275.533Z" fill="#3F3D56"/>
<path id="Vector_18" opacity="0.1" d="M620.232 275.533C620.232 275.533 586.769 163.247 576.129 161.763C565.488 160.279 552.805 190.987 552.805 190.987C541.888 237.814 503.727 313.721 503.727 313.721C503.727 313.721 541.927 316.04 569.895 331.136C597.863 346.233 630.758 330.168 630.758 330.168L620.232 275.533Z" fill="black"/>
<path id="Vector_19" d="M592.97 241.994L593.156 298.472L599.924 380.262L632.601 442.041L617.139 453.412L572.663 394.691L554.956 336.298L527.874 465.78L507.203 464.338L520.967 284.892L548.037 234.306L592.97 241.994Z" fill="#2F2E41"/>
<path id="Vector_20" d="M559.424 187.477C549.126 198.077 558.758 209.366 558.758 209.366L547.038 236.573L593.578 249.251L609.583 174.952L598.473 162.913C576.329 162.231 576.315 161.762 576.315 161.762C572.449 165.657 559.424 187.477 559.424 187.477Z" fill="#6C63FF"/>
<path id="Vector_21" d="M611.431 167.254C609.314 165.667 606.91 164.525 604.358 163.895C601.807 163.264 599.158 163.158 596.566 163.581C593.975 164.005 591.491 164.95 589.259 166.362C587.027 167.774 585.091 169.625 583.564 171.808C571.929 188.489 561.209 215.398 576.211 248.866C600.299 302.604 621.199 330.086 629.658 330.056C630.028 330.058 630.395 329.997 630.745 329.877C635.946 328.054 643.445 319.019 644.782 311.075C645.261 308.232 645.132 304.274 641.799 301.566C632.226 293.789 615.007 269.533 609.556 237.55C606.543 219.877 612.22 203.751 617.513 193.336C619.749 189.026 620.391 184.036 619.321 179.281C618.252 174.526 615.542 170.325 611.688 167.447V167.447L611.431 167.254Z" fill="#3F3D56"/>
<path id="Vector_22" d="M596.645 148.989C606.106 143.66 609.55 131.497 604.337 121.822C599.124 112.147 587.228 108.624 577.767 113.953C568.306 119.282 564.863 131.445 570.076 141.12C575.289 150.795 587.184 154.318 596.645 148.989Z" fill="#FFB7B7"/>
<path id="Vector_23" d="M559.695 130.049L587.937 129.956L588.213 125.809L589.675 129.951L594.024 129.936L594.571 121.717L597.467 129.925L605.882 129.898L605.881 129.49C605.856 123.77 603.612 118.292 599.643 114.26C595.674 110.227 590.302 107.969 584.707 107.981L580.726 107.994C575.131 108.019 569.774 110.312 565.832 114.371C561.889 118.429 559.681 123.921 559.694 129.642L559.695 130.049Z" fill="#2F2E41"/>
<path id="Vector_24" d="M601.664 144.815L613.703 140.776L613.605 110.848L590.84 110.923L591.406 111.497C599.274 119.479 608.088 147.862 601.664 144.815Z" fill="#2F2E41"/>
</g>
</g>
<defs>
<clipPath id="clip0">
<rect width="847.09" height="583.339" fill="white" transform="translate(0 3) rotate(-0.187828)"/>
</clipPath>
</defs>
</svg>
